Coordinates
version=1
nRows=38
nColumns=34
inDegrees=no

Units are S.I. units (second, meters, Newtons, ...)
If the header above contains a line with 'inDegrees', this indicates whether rotational values are in degrees (yes) or radians (no).

endheader
time	pelvis_tilt	pelvis_list	pelvis_rotation	pelvis_tx	pelvis_ty	pelvis_tz	hip_flexion_r	hip_adduction_r	hip_rotation_r	knee_angle_r	ankle_angle_r	subtalar_angle_r	mtp_angle_r	hip_flexion_l	hip_adduction_l	hip_rotation_l	knee_angle_l	ankle_angle_l	subtalar_angle_l	mtp_angle_l	lumbar_extension	lumbar_bending	lumbar_rotation	arm_flex_r	arm_add_r	arm_rot_r	elbow_flex_r	pro_sup_r	arm_flex_l	arm_add_l	arm_rot_l	elbow_flex_l	pro_sup_l
1.51	-0.0974705	0.0194602	-0.0318573	-0.455886	0.983779	-0.567254	0.6054	-0.158806	-0.243391	0.344072	-0.696718	-0.0641726	-0.123012	0.587382	-0.150256	-0.245246	0.348789	-0.646639	-0.0193307	-0.119958	-0.252259	0.0109918	-0.0953927	-1.22411	-1.25468	-1.09768	1.84714	1.5188	-1.00661	-1.21441	-1.12883	1.41647	1.46814
1.52	-0.107124	0.0216977	-0.0351664	-0.44402	0.954814	-0.566833	0.662329	-0.151666	-0.189006	0.479747	-0.448689	-0.0907031	-0.123006	0.63957	-0.149134	-0.21306	0.471682	-0.428733	-0.0628958	-0.119957	-0.241316	0.00893554	-0.101359	-1.21755	-1.19059	-1.06575	1.82635	1.51922	-1.07361	-1.14041	-1.15961	1.42632	1.44246
1.53	-0.118761	0.0234142	-0.0381739	-0.433161	0.926935	-0.56645	0.721934	-0.144035	-0.141671	0.60897	-0.230874	-0.114075	-0.123	0.696382	-0.14959	-0.184194	0.591926	-0.236173	-0.100068	-0.119955	-0.231419	0.00813716	-0.105682	-1.2028	-1.1257	-1.0299	1.80171	1.52339	-1.1196	-1.07039	-1.17197	1.43075	1.42135
1.54	-0.132236	0.0246077	-0.0408901	-0.423383	0.900233	-0.56611	0.784006	-0.135965	-0.10136	0.731524	-0.0438337	-0.134327	-0.122995	0.757562	-0.151618	-0.158637	0.709254	-0.0695375	-0.130896	-0.119954	-0.222743	0.0085918	-0.108351	-1.17996	-1.06003	-0.990316	1.77334	1.53132	-1.1449	-1.00437	-1.16623	1.42992	1.40479
1.55	-0.147078	0.0252921	-0.0433297	-0.414583	0.87473	-0.565819	0.847898	-0.127631	-0.0678845	0.847008	0.111622	-0.151558	-0.122989	0.822294	-0.155135	-0.136339	0.823013	0.0702272	-0.15559	-0.119953	-0.215867	0.0102399	-0.109358	-1.14944	-0.993656	-0.947544	1.74159	1.54296	-1.15045	-0.942409	-1.14332	1.42438	1.39266
1.56	-0.162265	0.0255932	-0.0454779	-0.406768	0.850565	-0.565614	0.91237	-0.119365	-0.0407706	0.955029	0.23547	-0.16588	-0.122983	0.888972	-0.159876	-0.117175	0.932214	0.182775	-0.174602	-0.119951	-0.211767	0.0129388	-0.108734	-1.11206	-0.926768	-0.902568	1.70723	1.55816	-1.13802	-0.884625	-1.10498	1.41513	1.38471
1.57	-0.176481	0.0256546	-0.0472763	-0.399779	0.828266	-0.565493	0.975574	-0.111656	-0.0192332	1.05534	0.329421	-0.177345	-0.122977	0.955195	-0.16531	-0.100938	1.03566	0.269311	-0.188603	-0.11995	-0.21177	0.016386	-0.106614	-1.06905	-0.859685	-0.856729	1.67138	1.57654	-1.11013	-0.831125	-1.05373	1.40365	1.38052
1.58	-0.188349	0.0256737	-0.0486059	-0.393532	0.807966	-0.565477	1.03536	-0.105035	-0.00229439	1.1478	0.3972	-0.185942	-0.122971	1.01817	-0.1707	-0.0873373	1.13206	0.332902	-0.198405	-0.119949	-0.217103	0.0201928	-0.10324	-1.02198	-0.792897	-0.811506	1.63554	1.59757	-1.06983	-0.781927	-0.992733	1.39174	1.37954
1.59	-0.197001	0.0258014	-0.0493489	-0.388083	0.789666	-0.565602	1.08986	-0.0999334	0.0110523	1.23225	0.444073	-0.191664	-0.122965	1.07546	-0.175269	-0.0760063	1.22024	0.378045	-0.204888	-0.119947	-0.228363	0.0239566	-0.0989203	-0.972432	-0.727075	-0.768273	1.60138	1.62055	-1.02031	-0.736866	-0.925484	1.38121	1.3811
1.6	-0.202345	0.0261766	-0.0494421	-0.383363	0.773059	-0.565865	1.13804	-0.096516	0.0217074	1.30858	0.475924	-0.19461	-0.122959	1.1257	-0.178421	-0.0664869	1.29934	0.409794	-0.208939	-0.119946	-0.245105	0.0274054	-0.0939216	-0.921875	-0.663034	-0.728103	1.57053	1.64465	-0.96455	-0.695541	-0.855485	1.37365	1.38445
1.61	-0.205148	0.0267952	-0.0489749	-0.379248	0.757908	-0.566254	1.18	-0.094597	0.030408	1.37673	0.498297	-0.195063	-0.122954	1.16892	-0.17989	-0.058235	1.36909	0.432853	-0.2114	-0.119944	-0.265857	0.0304017	-0.0883966	-0.871454	-0.601659	-0.691665	1.54444	1.66902	-0.905099	-0.657312	-0.785986	1.37016	1.38884
1.62	-0.206745	0.0275235	-0.0481967	-0.375643	0.743946	-0.566726	1.21671	-0.0936542	0.0376974	1.43694	0.515694	-0.19348	-0.122948	1.20634	-0.179802	-0.0506509	1.42989	0.450961	-0.213003	-0.119943	-0.28851	0.0329643	-0.082351	-0.821921	-0.543799	-0.659219	1.52418	1.69333	-0.843922	-0.621356	-0.719803	1.37134	1.39363
1.63	-0.208591	0.0281067	-0.0474675	-0.372523	0.730914	-0.567213	1.24968	-0.0929649	0.0439088	1.48975	0.531217	-0.190439	-0.122942	1.23985	-0.178627	-0.0431478	1.48276	0.46663	-0.214301	-0.119942	-0.310876	0.0352291	-0.0756875	-0.773613	-0.490179	-0.630626	1.51038	1.71761	-0.782408	-0.586761	-0.659222	1.3773	1.3984
1.64	-0.211891	0.0282378	-0.0471577	-0.369898	0.718599	-0.567649	1.28048	-0.0918085	0.0491696	1.53598	0.546511	-0.186549	-0.122936	1.27147	-0.177044	-0.0352406	1.52909	0.481207	-0.215642	-0.11994	-0.331158	0.0373974	-0.0682944	-0.726485	-0.441346	-0.60537	1.50323	1.74163	-0.721434	-0.552637	-0.605932	1.38781	1.40286
1.65	-0.217374	0.0276435	-0.047555	-0.367735	0.706889	-0.568006	1.31044	-0.0896665	0.0534487	1.57665	0.561967	-0.18237	-0.12293	1.30283	-0.175766	-0.026636	1.57036	0.495137	-0.217195	-0.119939	-0.348242	0.0396637	-0.0601458	-0.680181	-0.39765	-0.582602	1.50262	1.76459	-0.661454	-0.518242	-0.560977	1.40245	1.40695
1.66	-0.225214	0.0261794	-0.0487985	-0.36592	0.695794	-0.568262	1.34044	-0.0863583	0.0566416	1.61284	0.57711	-0.178329	-0.122924	1.33494	-0.175363	-0.0172909	1.60786	0.508344	-0.219001	-0.119937	-0.36177	0.0421505	-0.0513748	-0.634121	-0.359257	-0.561234	1.50812	1.7853	-0.602607	-0.483075	-0.524719	1.42071	1.41076
1.67	-0.235043	0.0238553	-0.0508642	-0.364358	0.685387	-0.568415	1.37087	-0.0820892	0.05867	1.64554	0.591079	-0.174649	-0.122918	1.368	-0.176127	-0.00741983	1.64251	0.520599	-0.221024	-0.119936	-0.37204	0.044842	-0.0423114	-0.587579	-0.326175	-0.540059	1.51902	1.80288	-0.544814	-0.446952	-0.496818	1.44206	1.41454
1.68	-0.246179	0.0208737	-0.0535667	-0.363	0.675689	-0.56848	1.40162	-0.0774115	0.0595615	1.67558	0.603071	-0.171317	-0.122912	1.4015	-0.178007	0.0025591	1.67485	0.531777	-0.223181	-0.119935	-0.379857	0.0475779	-0.033471	-0.539765	-0.298283	-0.517866	1.53441	1.81715	-0.487856	-0.410036	-0.476274	1.46597	1.41865
1.69	-0.257758	0.0176276	-0.0565778	-0.361838	0.666668	-0.5685	1.43221	-0.0731181	0.0594953	1.70358	0.61266	-0.168098	-0.122907	1.43446	-0.180619	0.0121116	1.70502	0.541958	-0.225363	-0.119933	-0.386272	0.0500844	-0.0255011	-0.489885	-0.275366	-0.493527	1.55319	1.82874	-0.431431	-0.372821	-0.461517	1.4919	1.42344
1.7	-0.268915	0.0146297	-0.0594819	-0.360875	0.658306	-0.568529	1.46196	-0.070097	0.0588118	1.72992	0.619932	-0.164592	-0.122901	1.46566	-0.183329	0.020678	1.73293	0.551378	-0.227433	-0.119932	-0.392346	0.0520193	-0.0190996	-0.437199	-0.257134	-0.466062	1.57417	1.83882	-0.375179	-0.33607	-0.450539	1.51926	1.42916
1.71	-0.27891	0.0124224	-0.0618521	-0.360114	0.650599	-0.568624	1.49012	-0.0691617	0.0579731	1.75477	0.625439	-0.160327	-0.122895	1.49397	-0.18541	0.0277548	1.75839	0.56033	-0.229231	-0.11993	-0.39897	0.0530405	-0.0148994	-0.381065	-0.243234	-0.434693	1.5962	1.84871	-0.318694	-0.300705	-0.441068	1.54741	1.43589
1.72	-0.287198	0.0114718	-0.063326	-0.359547	0.64353	-0.568836	1.51599	-0.0708894	0.0574768	1.77814	0.630031	-0.15487	-0.122889	1.51855	-0.186221	0.0329643	1.78123	0.569039	-0.230582	-0.119929	-0.406758	0.0528794	-0.013336	-0.320987	-0.23324	-0.398874	1.61825	1.85924	-0.26152	-0.267687	-0.430732	1.57565	1.44338
1.73	-0.293469	0.0120697	-0.0636642	-0.35915	0.637083	-0.569197	1.53905	-0.0755014	0.0577476	1.79999	0.634621	-0.147945	-0.122883	1.53893	-0.185367	0.0361156	1.80139	0.577599	-0.231314	-0.119927	-0.415991	0.0514038	-0.0145339	-0.256657	-0.22665	-0.358347	1.63956	1.87044	-0.203144	-0.237898	-0.417224	1.60328	1.45104
1.74	-0.297651	0.0142797	-0.0627823	-0.358877	0.631276	-0.569719	1.559	-0.0828104	0.0590504	1.8202	0.639964	-0.139522	-0.122877	1.55512	-0.182774	0.0372395	1.81898	0.585949	-0.231312	-0.119926	-0.42661	0.0486502	-0.0182471	-0.187982	-0.22288	-0.313182	1.65965	1.88153	-0.142997	-0.212041	-0.398432	1.62966	1.45805
1.75	-0.299882	0.0179389	-0.0607598	-0.358692	0.626131	-0.57037	1.57576	-0.0922375	0.0614651	1.83874	0.6465	-0.129862	-0.122871	1.56747	-0.178685	0.0365785	1.83423	0.593909	-0.230547	-0.119925	-0.438248	0.0448039	-0.0238764	-0.115063	-0.221278	-0.263782	1.67833	1.89122	-0.0804574	-0.190573	-0.372578	1.65426	1.46354
1.76	-0.300472	0.0227049	-0.0578368	-0.358557	0.621642	-0.571089	1.58949	-0.10289	0.0649206	1.85555	0.654281	-0.119505	-0.122865	1.57661	-0.173583	0.0345272	1.84743	0.60125	-0.229081	-0.119923	-0.450326	0.0401327	-0.0305702	-0.0381312	-0.221161	-0.210845	1.69564	1.8984	-0.014868	-0.173662	-0.33836	1.67672	1.46693
1.77	-0.299815	0.0281272	-0.0543775	-0.358442	0.61779	-0.571791	1.6005	-0.113685	0.0692466	1.87061	0.662996	-0.109205	-0.122859	1.58324	-0.168098	0.0315526	1.85888	0.607767	-0.22704	-0.119922	-0.462158	0.0349091	-0.0373781	0.0425614	-0.221847	-0.155273	1.71172	1.90247	0.054418	-0.161169	-0.295123	1.69687	1.46816
1.78	-0.298333	0.0337593	-0.0508059	-0.358336	0.614533	-0.57239	1.60914	-0.123508	0.0742147	1.88388	0.672064	-0.0997983	-0.122853	1.58801	-0.162891	0.028125	1.86876	0.613338	-0.224584	-0.11992	-0.473105	0.0293821	-0.0434089	0.126837	-0.222709	-0.0980636	1.7268	1.90346	0.12799	-0.15266	-0.242968	1.71479	1.46777
1.79	-0.296412	0.0392088	-0.0475481	-0.358243	0.61182	-0.572826	1.61574	-0.131385	0.0795762	1.8953	0.68079	-0.0920484	-0.122848	1.59139	-0.158535	0.0246559	1.87719	0.617933	-0.22189	-0.119919	-0.482657	0.0237609	-0.0479614	0.214619	-0.223198	-0.0402486	1.7411	1.90208	0.206346	-0.147471	-0.182764	1.73076	1.46687
1.8	-0.294351	0.044176	-0.0449597	-0.358177	0.609602	-0.573069	1.62057	-0.136631	0.085098	1.9048	0.688519	-0.0865084	-0.122842	1.59368	-0.155426	0.0214563	1.8842	0.621603	-0.219146	-0.119917	-0.490476	0.0182254	-0.0505879	0.305909	-0.222871	0.0171434	1.7549	1.89948	0.289874	-0.144801	-0.116039	1.74521	1.46684
1.81	-0.292345	0.0484693	-0.0432695	-0.358149	0.607834	-0.573117	1.62382	-0.138929	0.0905884	1.91237	0.694766	-0.0834489	-0.122836	1.59503	-0.153722	0.0187161	1.88978	0.624437	-0.216557	-0.119916	-0.496384	0.0129478	-0.0511165	0.400735	-0.221388	0.073132	1.76846	1.89674	0.378821	-0.143828	-0.0448097	1.75867	1.46886
1.82	-0.290509	0.0520019	-0.0425509	-0.358148	0.606499	-0.572983	1.62561	-0.138348	0.0959045	1.91798	0.699282	-0.08285	-0.12283	1.59548	-0.153343	0.016504	1.89388	0.626522	-0.214344	-0.119914	-0.500334	0.00810988	-0.0496519	0.499118	-0.218483	0.12681	1.78197	1.89483	0.473237	-0.143825	0.0285718	1.77165	1.47371
1.83	-0.288925	0.0547782	-0.0427211	-0.358157	0.605597	-0.572696	1.62603	-0.135295	0.100945	1.92163	0.702058	-0.0844362	-0.122824	1.59503	-0.154002	0.0147848	1.89646	0.627924	-0.212732	-0.119913	-0.502354	0.00390436	-0.0465586	0.601039	-0.213918	0.177376	1.79546	1.8944	0.572911	-0.144238	0.101559	1.78462	1.48162
1.84	-0.287695	0.0568783	-0.0435647	-0.358146	0.605143	-0.572303	1.62517	-0.130442	0.105642	1.92336	0.703292	-0.0877327	-0.122818	1.59366	-0.155263	0.0134421	1.89744	0.628683	-0.211934	-0.119912	-0.50248	0.000518099	-0.0424119	0.706396	-0.20744	0.224155	1.80873	1.8958	0.677312	-0.144734	0.171563	1.798	1.49222
1.85	-0.286985	0.0584525	-0.0447762	-0.358082	0.60515	-0.571867	1.62318	-0.124613	0.109965	1.92317	0.703335	-0.092133	-0.122812	1.59141	-0.156611	0.0122999	1.89672	0.628824	-0.21213	-0.11991	-0.50068	-0.00190851	-0.0379028	0.814926	-0.198794	0.266582	1.82137	1.89899	0.785589	-0.145192	0.236149	1.81211	1.50453
1.86	-0.28703	0.0597268	-0.0460232	-0.357924	0.60561	-0.571451	1.62027	-0.118658	0.113933	1.9211	0.702617	-0.0969683	-0.122806	1.58837	-0.157526	0.011133	1.89418	0.628372	-0.21345	-0.119909	-0.496817	-0.00334763	-0.0336916	0.926111	-0.187803	0.304164	1.83283	1.90364	0.896644	-0.145651	0.29329	1.82703	1.51706
1.87	-0.288103	0.0610064	-0.0470147	-0.357623	0.606496	-0.5711	1.61672	-0.113336	0.117646	1.9172	0.701571	-0.101589	-0.1228	1.58463	-0.157569	0.00966708	1.88972	0.627362	-0.215972	-0.119907	-0.490646	-0.0039745	-0.0302102	1.03911	-0.174517	0.336406	1.84259	1.90913	1.0093	-0.146198	0.341669	1.84248	1.52779
1.88	-0.290453	0.0626417	-0.0475629	-0.357121	0.607779	-0.570834	1.61284	-0.109196	0.121272	1.91154	0.700559	-0.105451	-0.122794	1.58027	-0.156453	0.00760815	1.88323	0.625842	-0.219715	-0.119906	-0.481859	-0.00416995	-0.0275872	1.15281	-0.159264	0.362877	1.85017	1.91469	1.12242	-0.146927	0.380791	1.8578	1.53448
